# xmcd
#
# Track frame offsets: 
#        150
#        21230
#        39385
#        56828
#        78580
#        95772
#        116520
#        141160
#        152312
#        170077
#        181607
#        203154
#
# Disc length: 2912 seconds
#
# Revision: 0
# Processed by: cddbd v1.5.2PL0 Copyright (c) Steve Scherf et al.
# Submitted via: ExactAudioCopy v0.90b4
#
DISCID=9b0b5e0c
DTITLE=Various Artist - Baby Goes Country
DYEAR=2007
DGENRE=Instrumental
TTITLE0=Alan Jackson - It's Five O'Clock Somewhere
TTITLE1=Toby Keith - As Good As I Once Was
TTITLE2=Dwight Yoakam - Guitars, Cadillacs
TTITLE3=Brooks and Dunn - Hillbilly Deluxe
TTITLE4=Kenny Chesney - Summertime
TTITLE5=Keith Urban - You'll Think Of Me
TTITLE6=Faith Hill - Breathe
TTITLE7=Tim McGraw - My Little Girl
TTITLE8=George Strait - It Just Comes Natural
TTITLE9=Johnny Cash - I Walk The Line
TTITLE10=Shania Twain - Forever And For Always
TTITLE11=Garth Brooks - Friends In Low Places
EXTD=
EXTT0=
EXTT1=
EXTT2=
EXTT3=
EXTT4=
EXTT5=
EXTT6=
EXTT7=
EXTT8=
EXTT9=
EXTT10=
EXTT11=
PLAYORDER=
